HIERARCHY
ROOT Hips
{
 OFFSET 0.000000 0.000000 0.000000
 CHANNELS 6 Xposition Yposition Zposition Yrotation Xrotation Zrotation
 JOINT Chest
 {
  OFFSET 0.000000 9.585900 0.002600
  CHANNELS 3 Yrotation Xrotation Zrotation
  JOINT Chest2
  {
   OFFSET 0.000000 9.601200 -0.005300
   CHANNELS 3 Yrotation Xrotation Zrotation
   JOINT Chest3
   {
    OFFSET 0.000000 9.561800 0.000000
    CHANNELS 3 Yrotation Xrotation Zrotation
    JOINT Chest4
    {
     OFFSET 0.000000 9.552100 0.000000
     CHANNELS 3 Yrotation Xrotation Zrotation
     JOINT Neck
     {
      OFFSET 0.000000 14.453000 0.000000
      CHANNELS 3 Yrotation Xrotation Zrotation
      JOINT Head
      {
       OFFSET 0.000000 8.936500 -0.011300
       CHANNELS 3 Yrotation Xrotation Zrotation
       End Site
       {
        OFFSET 0.000000 17.073600 -0.006000
       }
      }
     }
     JOINT RightCollar
     {
      OFFSET -2.921100 9.558500 0.000000
      CHANNELS 3 Yrotation Xrotation Zrotation
      JOINT RightShoulder
      {
       OFFSET -13.519700 0.000000 0.000000
       CHANNELS 3 Yrotation Xrotation Zrotation
       JOINT RightElbow
       {
        OFFSET 0.000000 -29.696600 0.000000
        CHANNELS 3 Yrotation Xrotation Zrotation
        JOINT RightWrist
        {
         OFFSET 0.000000 -24.004700 0.000000
         CHANNELS 3 Yrotation Xrotation Zrotation
         End Site
         {
          OFFSET 0.000000 -17.728500 0.000000
         }
        }
       }
      }
     }
     JOINT LeftCollar
     {
      OFFSET 2.921100 9.558500 0.000000
      CHANNELS 3 Yrotation Xrotation Zrotation
      JOINT LeftShoulder
      {
       OFFSET 13.519700 0.000000 0.000000
       CHANNELS 3 Yrotation Xrotation Zrotation
       JOINT LeftElbow
       {
        OFFSET 0.000000 -29.696600 0.000000
        CHANNELS 3 Yrotation Xrotation Zrotation
        JOINT LeftWrist
        {
         OFFSET 0.000000 -24.004700 0.000000
         CHANNELS 3 Yrotation Xrotation Zrotation
         End Site
         {
          OFFSET 0.000000 -17.728500 0.000000
         }
        }
       }
      }
     }
    }
   }
  }
 }
 JOINT RightHip
 {
  OFFSET -7.771700 -0.012900 -0.001300
  CHANNELS 3 Yrotation Xrotation Zrotation
  JOINT RightKnee
  {
   OFFSET 0.000000 -40.869800 0.001200
   CHANNELS 3 Yrotation Xrotation Zrotation
   JOINT RightAnkle
   {
    OFFSET 0.000000 -39.717900 0.002100
    CHANNELS 3 Yrotation Xrotation Zrotation
    JOINT RightToe
    {
     OFFSET 0.000000 -4.965400 11.033500
     CHANNELS 3 Yrotation Xrotation Zrotation
     End Site
     {
      OFFSET 0.000000 -1.423100 5.872300
     }
    }
   }
  }
 }
 JOINT LeftHip
 {
  OFFSET 7.771700 -0.012900 -0.001300
  CHANNELS 3 Yrotation Xrotation Zrotation
  JOINT LeftKnee
  {
   OFFSET 0.000000 -40.869800 0.001200
   CHANNELS 3 Yrotation Xrotation Zrotation
   JOINT LeftAnkle
   {
    OFFSET 0.000000 -39.717900 0.002100
    CHANNELS 3 Yrotation Xrotation Zrotation
    JOINT LeftToe
    {
     OFFSET 0.000000 -4.965400 11.033500
     CHANNELS 3 Yrotation Xrotation Zrotation
     End Site
     {
      OFFSET 0.000000 -1.423100 5.872300
     }
    }
   }
  }
 }
}
MOTION
Frames: 12
Frame Time: 0.008333
-207.084121 57.931146 26.969814 173.204608 -48.218354 -3.249169 5.136405 21.769909 3.324023 2.668887 12.482983 1.695011 3.420830 15.593259 2.227778 2.658680 12.474978 1.692433 0.304673 15.033991 3.161724 -0.602001 -7.843248 5.818837 1.232361 3.042906 0.997217 2.109989 -12.794728 -11.293708 -74.785706 -56.614484 121.123111 -1.863689 10.054652 -30.820860 -11.150463 0.824098 -0.892192 -1.241370 -11.582176 14.731167 67.106906 -53.130474 -114.588806 4.885852 -0.900087 11.904317 4.239022 -24.096823 -0.853622 -39.052893 73.284611 -41.203825 5.350045 -12.703491 10.044090 0.002082 -0.176275 -0.005019 -4.645656 -22.811424 10.258414 55.239356 79.135105 54.603169 5.380475 -15.713295 -17.223684 0.077611 0.115812 0.019895
-207.085367 57.931695 26.969210 173.201376 -48.217009 -3.248403 5.135791 21.767440 3.323235 2.668380 12.481858 1.694422 3.404527 15.583161 2.220406 2.666231 12.479962 1.693062 0.311653 15.042001 3.158636 -0.605648 -7.813897 5.785803 1.235827 3.039265 0.985705 2.114740 -12.810352 -11.296681 -74.764753 -56.609682 121.111964 -1.875968 10.048057 -30.839635 -11.143912 0.828873 -0.892939 -1.244327 -11.601444 14.726235 66.900184 -53.008767 -114.482181 4.970132 -0.904956 11.921099 4.238875 -24.095470 -0.854237 -39.049201 73.276952 -41.200018 5.358524 -12.701019 10.044926 -0.003181 -0.174291 -0.005542 -4.647985 -22.809785 10.260642 55.232218 79.133184 54.592518 5.379139 -15.714806 -17.219120 0.069438 0.118327 0.017417
-207.086573 57.931873 26.969127 173.194136 -48.212309 -3.244953 5.136072 21.760974 3.320535 2.656902 12.478619 1.688356 3.410636 15.583574 2.221026 2.664590 12.477913 1.691407 0.318769 15.049104 3.156085 -0.603566 -7.807200 5.779310 1.245467 3.036052 0.979937 2.115612 -12.804132 -11.291091 -74.767970 -56.629379 121.117853 -1.887064 10.035729 -30.847495 -11.137035 0.831399 -0.893113 -1.238778 -11.599690 14.725532 66.706964 -52.882168 -114.407680 5.051067 -0.913811 11.947599 4.237745 -24.098940 -0.853131 -39.071418 73.256220 -41.227094 5.378369 -12.687601 10.053983 -0.007687 -0.177585 -0.010612 -4.648214 -22.811981 10.263673 55.225951 79.131478 54.582557 5.383402 -15.715419 -17.216661 0.065832 0.120423 0.016876
-207.087308 57.932807 26.968534 173.191708 -48.212559 -3.246742 5.131719 21.761727 3.318161 2.655684 12.476590 1.687626 3.408301 15.581008 2.217806 2.667154 12.477220 1.690453 0.315709 15.054551 3.151021 -0.603014 -7.796724 5.760281 1.251427 3.029787 0.970306 2.121557 -12.806985 -11.288367 -74.775838 -56.635285 121.118291 -1.889453 10.035249 -30.850371 -11.143672 0.830544 -0.892558 -1.226605 -11.600470 14.722767 66.507310 -52.756056 -114.324233 5.133656 -0.925129 11.982285 4.226821 -24.094228 -0.850727 -39.055571 73.250810 -41.219096 5.387724 -12.688260 10.063806 -0.011296 -0.171218 -0.016912 -4.651600 -22.808435 10.267175 55.227042 79.126940 54.585694 5.382373 -15.714749 -17.221773 0.079301 0.118995 0.023263
-207.088296 57.933725 26.967825 173.188949 -48.212445 -3.245508 5.125944 21.762531 3.314585 2.656770 12.474864 1.686105 3.405703 15.579253 2.214891 2.673819 12.478524 1.691187 0.305729 15.054273 3.141519 -0.602890 -7.789347 5.744405 1.248215 3.019602 0.962847 2.123859 -12.812609 -11.289458 -74.767447 -56.641066 121.113279 -1.884067 10.023125 -30.872990 -11.155697 0.824626 -0.899209 -1.219356 -11.606527 14.725344 66.303752 -52.630564 -114.227611 5.216044 -0.938254 12.017503 4.222423 -24.091709 -0.849603 -39.046072 73.248521 -41.214050 5.388464 -12.689418 10.065737 -0.016127 -0.166012 -0.015760 -4.651788 -22.806027 10.268188 55.221768 79.124843 54.581391 5.381099 -15.714359 -17.224600 0.084049 0.117957 0.026386
-207.088736 57.934472 26.967239 173.188582 -48.210365 -3.248031 5.121527 21.760986 3.314561 2.659928 12.474016 1.685861 3.404574 15.578736 2.213881 2.659967 12.473999 1.685835 0.297747 15.055106 3.127872 -0.583957 -7.782514 5.745236 1.258352 3.018524 0.955904 2.138039 -12.835487 -11.302841 -74.742736 -56.630912 121.079531 -1.890097 10.014396 -30.888427 -11.171568 0.809244 -0.898060 -1.194110 -11.591950 14.721141 66.119158 -52.510389 -114.139626 5.290694 -0.949594 12.048783 4.219005 -24.093069 -0.846879 -39.041263 73.248116 -41.210967 5.392982 -12.684850 10.067190 -0.019016 -0.169438 -0.016853 -4.653074 -22.806890 10.271241 55.245223 79.120067 54.607057 5.373967 -15.715016 -17.227869 0.088492 0.116481 0.028919
-207.088458 57.935694 26.966182 173.192746 -48.211688 -3.256618 5.116642 21.764157 3.315082 2.657813 12.471938 1.683769 3.401839 15.576213 2.211085 2.657833 12.472044 1.683655 0.308671 15.059249 3.129610 -0.584845 -7.782474 5.738565 1.267024 3.015988 0.949718 2.141738 -12.833011 -11.295439 -74.747956 -56.644735 121.085565 -1.898600 10.010536 -30.904181 -11.173185 0.807925 -0.894779 -1.183937 -11.587872 14.718358 65.951825 -52.400366 -114.063793 5.357088 -0.956274 12.080000 4.207089 -24.088624 -0.838199 -39.041887 73.245874 -41.216006 5.391921 -12.684925 10.070358 -0.017445 -0.169432 -0.018962 -4.664325 -22.803094 10.275531 55.280067 79.113161 54.645902 5.368802 -15.711919 -17.239594 0.091428 0.112556 0.031332
-207.086920 57.936507 26.965605 173.194621 -48.209458 -3.270556 5.111749 21.763276 3.315498 2.662591 12.469644 1.686539 3.388572 15.574887 2.202206 2.654571 12.470398 1.680402 0.320873 15.059960 3.125344 -0.583779 -7.782951 5.726514 1.289515 3.009182 0.946169 2.140217 -12.838389 -11.297760 -74.738737 -56.645132 121.080100 -1.912925 10.006735 -30.921728 -11.154682 0.810843 -0.887687 -1.184129 -11.586724 14.716117 65.808421 -52.307498 -114.002002 5.419363 -0.956620 12.113897 4.198631 -24.090560 -0.822695 -39.047324 73.244905 -41.222144 5.394550 -12.681847 10.071059 -0.016933 -0.170460 -0.018037 -4.674936 -22.803284 10.288145 55.307421 79.106411 54.684469 5.355342 -15.707968 -17.255714 0.101325 0.107331 0.037320
-207.086091 57.937329 26.964813 173.200592 -48.207537 -3.283165 5.104878 21.764390 3.318027 2.661469 12.465452 1.683288 3.385895 15.578391 2.204359 2.652563 12.470156 1.679692 0.312706 15.057138 3.108076 -0.577936 -7.784710 5.715325 1.299222 3.004431 0.940035 2.147205 -12.854669 -11.306262 -74.720092 -56.643969 121.062305 -1.928094 10.001208 -30.943093 -11.160586 0.798769 -0.892777 -1.181097 -11.578709 14.714532 65.715658 -52.250395 -113.953302 5.497574 -0.938731 12.141455 4.188523 -24.088623 -0.812150 -39.039852 73.240307 -41.215877 5.398842 -12.679297 10.069899 -0.017937 -0.169232 -0.016242 -4.687843 -22.804478 10.295395 55.322779 79.104785 54.703371 5.359540 -15.703241 -17.264647 0.102724 0.104619 0.039788
-207.086629 57.938097 26.963863 173.199476 -48.205849 -3.283153 5.100256 21.767146 3.312777 2.658893 12.466213 1.683877 3.386188 15.575970 2.204249 2.649884 12.472378 1.680029 0.315829 15.054615 3.100343 -0.588606 -7.782209 5.667340 1.292638 2.989079 0.912918 2.177116 -12.873946 -11.300999 -74.667209 -56.651984 121.005537 -1.949822 9.975412 -30.962213 -11.192693 0.782252 -0.899302 -1.180979 -11.568967 14.715405 65.624033 -52.196428 -113.880918 5.548466 -0.929716 12.180469 4.186351 -24.089527 -0.809948 -39.035925 73.239613 -41.214198 5.400240 -12.675267 10.070593 -0.014813 -0.165767 -0.013701 -4.690239 -22.803318 10.295218 55.320515 79.102103 54.702817 5.351758 -15.704333 -17.264541 0.101593 0.105854 0.039878
-207.086665 57.938838 26.963231 173.195675 -48.203694 -3.286071 5.101508 21.769739 3.314374 2.652038 12.467516 1.681312 3.395024 15.570105 2.206860 2.645325 12.479970 1.679830 0.310607 15.048928 3.091890 -0.582212 -7.781781 5.657546 1.297227 2.974575 0.899928 2.184071 -12.874674 -11.294297 -74.656004 -56.654556 120.988817 -1.953329 9.970605 -30.970548 -11.206420 0.766145 -0.903243 -1.176326 -11.560468 14.717414 65.504111 -52.140292 -113.810736 5.567098 -0.931470 12.229421 4.184224 -24.091348 -0.802538 -39.029400 73.237102 -41.211118 5.404637 -12.669391 10.075380 -0.016454 -0.166749 -0.015644 -4.691812 -22.803500 10.300192 55.321343 79.101660 54.705697 5.357984 -15.704465 -17.268044 0.101234 0.107229 0.040574
-207.087785 57.939040 26.963176 173.193199 -48.197125 -3.286190 5.101184 21.768479 3.313374 2.652752 12.465709 1.681683 3.392308 15.575082 2.206145 2.644669 12.482109 1.678565 0.300194 15.057334 3.070547 -0.572377 -7.796657 5.661081 1.298385 2.957108 0.888165 2.193959 -12.874253 -11.287978 -74.645411 -56.655998 120.972589 -1.963791 9.981678 -30.998903 -11.210706 0.751326 -0.904126 -1.172250 -11.555561 14.719156 65.420536 -52.108805 -113.761643 5.595855 -0.919552 12.275078 4.184194 -24.097625 -0.800690 -39.027616 73.234060 -41.211665 5.410040 -12.664596 10.081468 -0.016335 -0.166863 -0.017856 -4.693716 -22.809574 10.300564 55.333300 79.098384 54.718000 5.359992 -15.702668 -17.269819 0.099014 0.107198 0.040647
